HIERARCHY
ROOT Hips
{
	OFFSET 0.000000 0.000000 0.000000
	CHANNELS 6 Xposition Yposition Zposition Xrotation Yrotation Zrotation
	JOINT C_ctrl
	{
		OFFSET 0.000000 35.040482 -0.000011
		CHANNELS 3 Xrotation Yrotation Zrotation
		JOINT Bip01
		{
			OFFSET -41.537640 41.789009 -0.000007
			CHANNELS 3 Xrotation Yrotation Zrotation
			JOINT Bip01_Pelvis
			{
				OFFSET -2.462887 0.000000 0.000000
				CHANNELS 3 Xrotation Yrotation Zrotation
				JOINT BN_Tail_01
				{
					OFFSET -11.399368 7.351341 -0.000013
					CHANNELS 3 Xrotation Yrotation Zrotation
					JOINT BN_Tail_02
					{
						OFFSET -11.365196 -0.343025 0.000012
						CHANNELS 3 Xrotation Yrotation Zrotation
						JOINT BN_Tail_03
						{
							OFFSET -15.076256 -0.454979 0.000017
							CHANNELS 3 Xrotation Yrotation Zrotation
							JOINT BN_Tail_04
							{
								OFFSET -17.395691 -0.525002 0.000016
								CHANNELS 3 Xrotation Yrotation Zrotation
								JOINT BN_Tail_05
								{
									OFFSET -16.699837 -0.504005 0.000016
									CHANNELS 3 Xrotation Yrotation Zrotation
									End Site
									{
										OFFSET 0.503998 -16.699829 0.000067
									}
								}
							}
						}
					}
				}
				JOINT Bip01_Spine
				{
					OFFSET 8.297798 5.916809 -0.000020
					CHANNELS 3 Xrotation Yrotation Zrotation
					JOINT Bip01_R_Thigh
					{
						OFFSET -8.297779 -5.916794 10.541781
						CHANNELS 3 Xrotation Yrotation Zrotation
						JOINT Bip01_R_Calf
						{
							OFFSET 5.631542 -22.906792 0.862690
							CHANNELS 3 Xrotation Yrotation Zrotation
							JOINT Bip01_R_HorseLink
							{
								OFFSET -16.984341 -19.231926 -3.555767
								CHANNELS 3 Xrotation Yrotation Zrotation
								JOINT Bip01_R_Foot
								{
									OFFSET 4.290367 -24.783146 0.578056
									CHANNELS 3 Xrotation Yrotation Zrotation
									JOINT Bip01_R_Toe0
									{
										OFFSET 3.561211 -5.815116 0.760802
										CHANNELS 3 Xrotation Yrotation Zrotation
										JOINT Bip01_R_Toe0Nub
										{
											OFFSET 16.135469 0.002017 1.534789
											CHANNELS 3 Xrotation Yrotation Zrotation
											End Site
											{
												OFFSET -0.000002 16.208284 -0.000056
											}
										}
									}
								}
							}
						}
					}
					JOINT Bip01_L_Thigh
					{
						OFFSET -8.297813 -5.916832 -10.541739
						CHANNELS 3 Xrotation Yrotation Zrotation
						JOINT Bip01_L_Calf
						{
							OFFSET 5.631535 -22.906792 -0.862625
							CHANNELS 3 Xrotation Yrotation Zrotation
							JOINT Bip01_L_HorseLink
							{
								OFFSET -16.984318 -19.231949 3.555875
								CHANNELS 3 Xrotation Yrotation Zrotation
								JOINT Bip01_L_Foot
								{
									OFFSET 4.290367 -24.783169 -0.577965
									CHANNELS 3 Xrotation Yrotation Zrotation
									JOINT Bip01_L_Toe0
									{
										OFFSET 3.561245 -5.815111 -0.760799
										CHANNELS 3 Xrotation Yrotation Zrotation
										JOINT Bip01_L_Toe0Nub
										{
											OFFSET 6.574303 -0.000005 -1.538561
											CHANNELS 3 Xrotation Yrotation Zrotation
											End Site
											{
												OFFSET 0.000004 -6.751935 0.000023
											}
										}
									}
								}
							}
						}
					}
					JOINT Bip01_Spine1
					{
						OFFSET 20.556803 -4.626213 -0.000025
						CHANNELS 3 Xrotation Yrotation Zrotation
						JOINT Saddle
						{
							OFFSET 17.608810 18.174690 -0.000143
							CHANNELS 3 Xrotation Yrotation Zrotation
							End Site
							{
								OFFSET -0.000063 -0.000061 -22.448387
							}
						}
						JOINT BN_center
						{
							OFFSET 10.743275 -13.417107 -0.172041
							CHANNELS 3 Xrotation Yrotation Zrotation
							End Site
							{
								OFFSET 22.434088 0.553078 -0.579614
							}
						}
						JOINT Bip01_Spine2
						{
							OFFSET 24.765072 -2.054115 -0.000032
							CHANNELS 3 Xrotation Yrotation Zrotation
							JOINT Handle
							{
								OFFSET 63.735676 16.430748 -16.052464
								CHANNELS 3 Xrotation Yrotation Zrotation
								JOINT IK_Chain01
								{
									OFFSET -4.713058 -6.020439 0.185448
									CHANNELS 3 Xrotation Yrotation Zrotation
									End Site
									{
										OFFSET -0.000023 -0.000023 -7.648071
									}
								}
							}
							JOINT BN_hair04_01
							{
								OFFSET 1.987491 16.256981 -2.049672
								CHANNELS 3 Xrotation Yrotation Zrotation
								JOINT BN_hair04_02
								{
									OFFSET -1.318762 -3.831451 -6.174704
									CHANNELS 3 Xrotation Yrotation Zrotation
									JOINT BN_hair04_03
									{
										OFFSET -0.827490 -5.886627 -5.656666
										CHANNELS 3 Xrotation Yrotation Zrotation
										End Site
										{
											OFFSET -2.658262 5.010620 -5.929780
										}
									}
								}
							}
							JOINT Bip01_Neck
							{
								OFFSET 25.574577 9.433014 -0.000084
								CHANNELS 3 Xrotation Yrotation Zrotation
								JOINT Bip01_R_Clavicle
								{
									OFFSET -16.535652 0.011192 6.705692
									CHANNELS 3 Xrotation Yrotation Zrotation
									JOINT Bip01_R_UpperArm
									{
										OFFSET 20.272621 -12.959984 2.510816
										CHANNELS 3 Xrotation Yrotation Zrotation
										JOINT Bip01_R_Forearm
										{
											OFFSET -13.633509 -15.503704 -0.653585
											CHANNELS 3 Xrotation Yrotation Zrotation
											JOINT Bip01_R_Hand
											{
												OFFSET 2.580030 -27.804676 -1.136415
												CHANNELS 3 Xrotation Yrotation Zrotation
												JOINT Bip01_R_Finger0
												{
													OFFSET -0.281744 -19.659061 -0.398649
													CHANNELS 3 Xrotation Yrotation Zrotation
													JOINT Bip01_Xtra02
													{
														OFFSET 4.152210 -5.712314 0.433813
														CHANNELS 3 Xrotation Yrotation Zrotation
														JOINT Bip01_Xtra02Nub
														{
															OFFSET 15.457960 0.041654 0.507982
															CHANNELS 3 Xrotation Yrotation Zrotation
															End Site
															{
																OFFSET -15.421730 -0.157725 -1.163459
															}
														}
													}
													JOINT Bip01_R_Finger0Nub
													{
														OFFSET 8.362326 -9.718440 -0.143142
														CHANNELS 3 Xrotation Yrotation Zrotation
														End Site
														{
															OFFSET -1.213036 -0.198171 9.872291
														}
													}
												}
											}
										}
									}
								}
								JOINT Bip01_L_Clavicle
								{
									OFFSET -16.535673 0.011162 -6.705583
									CHANNELS 3 Xrotation Yrotation Zrotation
									JOINT Bip01_L_UpperArm
									{
										OFFSET 20.272615 -12.959999 -2.510836
										CHANNELS 3 Xrotation Yrotation Zrotation
										JOINT Bip01_L_Forearm
										{
											OFFSET -13.633495 -15.503681 0.653678
											CHANNELS 3 Xrotation Yrotation Zrotation
											JOINT Bip01_L_Hand
											{
												OFFSET 2.579988 -27.804686 1.136487
												CHANNELS 3 Xrotation Yrotation Zrotation
												JOINT Bip01_L_Finger0
												{
													OFFSET -0.281765 -19.659058 0.398696
													CHANNELS 3 Xrotation Yrotation Zrotation
													JOINT Bip01_Xtra01
													{
														OFFSET 4.083549 -5.738758 -0.666714
														CHANNELS 3 Xrotation Yrotation Zrotation
														JOINT Bip01_Xtra01Nub
														{
															OFFSET 6.758158 -0.395525 -0.023239
															CHANNELS 3 Xrotation Yrotation Zrotation
															End Site
															{
																OFFSET 6.764923 -0.254147 -0.029908
															}
														}
													}
													JOINT Bip01_L_Finger0Nub
													{
														OFFSET -0.012636 -9.629153 0.045740
														CHANNELS 3 Xrotation Yrotation Zrotation
														End Site
														{
															OFFSET 0.988407 0.004791 8.293357
														}
													}
												}
											}
										}
									}
								}
								JOINT BN_hair03_01
								{
									OFFSET -5.894140 16.270622 -2.498433
									CHANNELS 3 Xrotation Yrotation Zrotation
									JOINT BN_hair03_02
									{
										OFFSET -0.189278 -7.800507 -6.219162
										CHANNELS 3 Xrotation Yrotation Zrotation
										JOINT BN_hair03_03
										{
											OFFSET 0.612345 -10.844475 -3.370718
											CHANNELS 3 Xrotation Yrotation Zrotation
											End Site
											{
												OFFSET -2.273296 2.862007 -10.769416
											}
										}
									}
								}
								JOINT Bip01_Neck1
								{
									OFFSET 9.383755 11.908699 -0.000007
									CHANNELS 3 Xrotation Yrotation Zrotation
									JOINT BN_hair02_01
									{
										OFFSET 9.126320 18.808022 -1.420810
										CHANNELS 3 Xrotation Yrotation Zrotation
										JOINT BN_hair02_02
										{
											OFFSET 0.393478 -5.181091 -5.248574
											CHANNELS 3 Xrotation Yrotation Zrotation
											JOINT BN_hair02_03
											{
												OFFSET 0.762280 -8.167076 -0.230047
												CHANNELS 3 Xrotation Yrotation Zrotation
												End Site
												{
													OFFSET -0.025837 -1.251419 -8.109770
												}
											}
										}
									}
									JOINT Bip01_Head
									{
										OFFSET 14.266129 10.475403 -0.000008
										CHANNELS 3 Xrotation Yrotation Zrotation
										JOINT BN_Reins_01
										{
											OFFSET 18.547455 -15.740112 -0.000035
											CHANNELS 3 Xrotation Yrotation Zrotation
											JOINT BN_Reins_02
											{
												OFFSET -5.372810 -5.884506 0.000028
												CHANNELS 3 Xrotation Yrotation Zrotation
												JOINT BN_Reins_03
												{
													OFFSET -6.395866 -15.947449 0.000070
													CHANNELS 3 Xrotation Yrotation Zrotation
													JOINT BN_Halter_R_01
													{
														OFFSET -1.234055 -3.096100 7.096737
														CHANNELS 3 Xrotation Yrotation Zrotation
														End Site
														{
															OFFSET 10.514435 -4.176861 -0.000004
														}
													}
													JOINT BN_Halter_L_01
													{
														OFFSET -1.234062 -3.096146 -7.096726
														CHANNELS 3 Xrotation Yrotation Zrotation
														End Site
														{
															OFFSET -10.514435 4.176865 -0.000000
														}
													}
													JOINT BN_Reins_04
													{
														OFFSET -6.737644 -16.971684 0.000074
														CHANNELS 3 Xrotation Yrotation Zrotation
														JOINT BN_Halter_R_02
														{
															OFFSET -4.688869 -11.781956 7.096771
															CHANNELS 3 Xrotation Yrotation Zrotation
															End Site
															{
																OFFSET 14.669624 -5.827511 -0.000006
															}
														}
														JOINT BN_Halter_L_02
														{
															OFFSET -4.688892 -11.782017 -7.096693
															CHANNELS 3 Xrotation Yrotation Zrotation
															End Site
															{
																OFFSET -14.669624 5.827507 -0.000002
															}
														}
														JOINT BN_Reins_05
														{
															OFFSET -6.822578 -16.971161 0.000074
															CHANNELS 3 Xrotation Yrotation Zrotation
															JOINT BN_Reins_06
															{
																OFFSET -6.140354 -15.095148 0.000066
																CHANNELS 3 Xrotation Yrotation Zrotation
																End Site
																{
																	OFFSET -15.095150 6.140352 -0.000002
																}
															}
														}
													}
												}
											}
										}
										JOINT BN_hair01_01
										{
											OFFSET 8.957344 8.870956 0.112121
											CHANNELS 3 Xrotation Yrotation Zrotation
											JOINT BN_hair01_02
											{
												OFFSET 6.002075 -2.962952 -3.121264
												CHANNELS 3 Xrotation Yrotation Zrotation
												End Site
												{
													OFFSET 5.917702 3.813591 -2.232396
												}
											}
										}
										JOINT BN_Eyebrow_R
										{
											OFFSET 11.795959 -0.430496 4.449781
											CHANNELS 3 Xrotation Yrotation Zrotation
											JOINT Bip01_Xtra06Nub
											{
												OFFSET 2.936661 -0.262573 3.246701
												CHANNELS 3 Xrotation Yrotation Zrotation
												End Site
												{
													OFFSET 2.768745 0.208199 3.394807
												}
											}
										}
										JOINT BN_Eyebrow_L
										{
											OFFSET 11.586395 -0.445618 -4.441728
											CHANNELS 3 Xrotation Yrotation Zrotation
											JOINT Bip01_Xtra05Nub
											{
												OFFSET 3.244698 -0.349442 -4.416700
												CHANNELS 3 Xrotation Yrotation Zrotation
												End Site
												{
													OFFSET 3.053162 0.072495 -4.564033
												}
											}
										}
										JOINT Bip01_R_Ear_01
										{
											OFFSET 7.142960 7.567184 4.311657
											CHANNELS 3 Xrotation Yrotation Zrotation
											JOINT Bip01_Xtra04Nub
											{
												OFFSET 9.464531 9.264214 1.682953
												CHANNELS 3 Xrotation Yrotation Zrotation
												End Site
												{
													OFFSET 8.448181 10.159340 1.910823
												}
											}
										}
										JOINT Bip01__L_Ear_01
										{
											OFFSET 7.214943 7.717056 -4.356771
											CHANNELS 3 Xrotation Yrotation Zrotation
											JOINT Bip01_Xtra03Nub
											{
												OFFSET 9.230225 8.944366 -2.322746
												CHANNELS 3 Xrotation Yrotation Zrotation
												End Site
												{
													OFFSET 8.170288 9.841324 -2.643566
												}
											}
										}
										JOINT Bip01_Jaw
										{
											OFFSET 9.196068 -4.110695 -0.000013
											CHANNELS 3 Xrotation Yrotation Zrotation
											JOINT Bip01_Ponytail1Nub
											{
												OFFSET 10.976463 -21.082108 -0.000053
												CHANNELS 3 Xrotation Yrotation Zrotation
												End Site
												{
													OFFSET 11.247093 -20.938980 0.000113
												}
											}
										}
										JOINT Bip01_HeadNub
										{
											OFFSET 29.954575 -18.249489 -0.000063
											CHANNELS 3 Xrotation Yrotation Zrotation
											End Site
											{
												OFFSET -9.198448 -13.366348 0.000168
											}
										}
									}
								}
							}
						}
					}
				}
			}
		}
	}
}
MOTION
Frames: 4
Frame Time: 0.033333
0.000000 0.000000 0.000000 0.000008 0.000000 -0.000000 -0.000000 0.000000 -0.000000 -3.999965 -0.298811 -0.034891 0.000072 -2.500065 -0.000014 1.458383 0.359511 28.957413 -0.875283 1.849893 24.185140 -0.554824 1.499741 19.148024 -0.302592 1.760834 8.042817 0.004963 2.280688 -1.568944 -0.234684 2.980756 6.658449 6.197355 4.996734 -6.733856 -0.253219 -0.016728 1.285451 1.774086 -0.042182 -8.998075 -2.489979 1.962256 7.031446 -0.876975 0.699044 2.898413 -0.000027 -0.000008 -0.000006 6.444144 -9.772603 14.394354 -3.524849 0.362588 -18.017175 1.773823 0.239002 9.072487 -10.216411 6.460658 -59.726275 0.832873 0.090713 3.657775 -0.008476 -0.000101 -0.038629 0.851569 0.332130 -6.639241 3.426905 -0.607249 0.066646 -0.003508 -0.188725 0.020278 1.185481 -0.006658 -9.632265 0.000078 -0.000112 -0.000056 -0.000056 -0.027840 0.027951 5.086184 5.223430 6.184319 2.976019 0.492844 -0.985059 6.795892 1.101760 -2.329156 1.708679 -0.517780 4.573842 -1.678594 0.909429 -2.967739 2.087985 -8.812720 30.237251 -0.001152 -0.092599 2.257960 8.605607 7.141160 -10.461870 -4.096830 2.038013 -16.422123 0.000180 0.000294 0.000030 -0.802201 0.160590 -0.479881 -0.804182 0.123494 -0.482643 -1.618293 2.132151 -13.692561 6.201338 1.967695 7.959180 -0.056511 -0.441732 -10.873699 -7.492464 -3.855751 4.992727 0.190909 -1.024430 10.986562 -0.089101 13.329267 0.167110 0.036635 0.063832 2.451839 -0.000913 0.100618 2.451955 2.016081 0.211890 -0.338004 1.158797 0.149766 -0.212371 0.351584 0.065767 -0.191133 0.101652 -1.441906 -0.688147 2.985687 0.278700 -0.059741 0.462798 0.042655 0.022622 1.110228 0.091444 -0.097087 1.014401 1.500092 -3.472839 -0.000005 -0.000240 -21.499110 0.029438 -1.685122 -9.387322 -0.000095 -0.000101 -32.790406 -0.000028 -0.000038 -1.797735 -0.000009 -0.000041 -2.378450 -0.000154 -0.000137 -51.026554 -23.901250 -11.934583 -2.559533 34.949211 16.671940 -5.206543 -0.000086 -0.000110 -34.923075 0.000006 0.000016 -0.000009 0.540732 3.317981 -0.214492 0.376455 -0.078633 0.759519 0.000062 0.000007 0.000000 0.024189 -0.030000 11.786599 0.000057 -0.000033 -0.000009 0.023216 -0.032295 11.715984 -0.415203 -0.910070 6.917690 0.050255 0.015095 11.755988 0.757197 1.736789 9.166334 0.022807 0.006707 11.747265 -0.000010 0.000043 2.000016 -0.004532 -0.052588 11.750673 0.000056 -0.000026 11.750686 
0.000000 0.000000 0.000000 0.000008 0.000000 -0.000000 -0.000000 0.000000 -0.000000 -3.802491 -0.555578 -0.050913 -0.000139 -2.453183 -0.000009 1.458383 0.359511 28.957417 -0.949936 2.015494 23.897386 -0.620684 1.627511 19.537008 -0.265098 1.529695 8.288458 0.002246 2.150063 -1.466105 -0.202648 3.048928 6.969551 5.961855 4.928295 -7.823823 -0.335315 -0.023375 1.702619 1.931561 -0.059465 -9.800392 -2.482774 2.143782 7.352793 -1.015894 0.702253 3.743389 -0.000027 -0.000010 -0.000006 6.526455 -9.945413 15.235461 -3.192944 0.279747 -16.286227 1.950240 0.278646 9.987535 -10.297865 6.552938 -59.539927 0.776221 0.065435 3.403455 -0.008477 -0.000102 -0.038631 0.676594 0.383849 -7.119399 3.408094 -0.507582 0.118773 0.008971 -0.188400 0.018414 1.142590 -0.031549 -9.712057 0.000078 -0.000112 -0.000057 -0.000055 -0.027840 0.027951 4.885278 5.165306 6.173700 2.764348 0.470081 -0.925306 6.702682 1.080834 -2.285400 1.704029 -0.556633 4.518081 -1.679613 1.007587 -2.529855 2.208625 -8.978908 29.720465 -0.001203 -0.069346 1.690991 8.644013 7.483909 -10.388281 -4.362794 2.152202 -16.341805 -0.000142 0.000210 0.000012 -0.802228 0.160590 -0.479884 -0.804182 0.123494 -0.482642 -1.605332 2.169927 -13.639715 6.196223 1.951745 8.488932 -0.059493 -0.454760 -11.199541 -7.480347 -3.614008 3.577494 -0.451753 -1.027453 6.280844 -0.089166 13.329273 0.167612 0.036661 0.063834 2.451839 -0.000914 0.100617 2.451957 1.887378 0.142862 -0.241080 1.008801 0.134511 -0.187661 0.403245 0.064564 -0.173013 0.075976 -1.423269 -0.568201 2.802403 0.261679 -0.055664 0.460977 0.039058 0.026091 1.083691 0.088770 -0.071244 1.129802 1.531490 -3.254011 -0.000004 -0.000240 -21.499108 0.022394 -1.695747 -9.667821 -0.000094 -0.000101 -32.730328 -0.000028 -0.000037 -1.797735 -0.000009 -0.000041 -2.378455 -0.000154 -0.000137 -50.933889 -23.901250 -11.934582 -2.559534 34.949211 16.671942 -5.206539 -0.000086 -0.000110 -34.863929 0.000007 0.000016 -0.000009 0.513535 3.162781 -0.304297 0.365115 -0.068725 0.715434 0.000060 0.000010 0.000001 0.024207 -0.030002 11.786621 0.000056 -0.000035 -0.000007 0.023232 -0.032300 11.715962 -0.448542 -0.998033 7.567599 0.050270 0.015119 11.755998 0.770104 1.774521 9.358877 0.022806 0.006708 11.747270 -0.000009 0.000044 2.099465 -0.004515 -0.052609 11.750680 0.000056 -0.000026 11.750687 
0.000000 0.000000 0.000000 0.000008 0.000000 -0.000000 -0.000000 0.000000 -0.000000 -3.589113 -0.792185 -0.063675 -0.000110 -2.395065 -0.000014 1.458383 0.359511 28.957417 -1.015213 2.181618 23.449052 -0.747291 1.899590 19.920523 -0.232685 1.302283 8.805442 -0.000189 2.021962 -1.365282 -0.167281 3.090108 7.402707 5.701452 4.883856 -8.894856 -0.373371 -0.026664 1.896088 2.072901 -0.076883 -10.521567 -2.516477 2.278450 7.740483 -1.119583 0.701803 4.514595 -0.000027 -0.000009 -0.000006 6.503474 -10.369454 14.891991 -2.532425 0.146045 -12.874617 2.069805 0.307210 10.609596 -10.436829 6.703867 -58.231877 0.625449 0.055141 2.742834 -0.008477 -0.000101 -0.038630 0.450810 0.447891 -7.674478 3.389576 -0.409877 0.169916 0.021206 -0.188096 0.016522 1.074055 -0.048760 -9.806381 0.000078 -0.000112 -0.000056 -0.000056 -0.027840 0.027950 4.688267 5.108336 6.163105 2.539494 0.439398 -0.855519 6.611283 1.060217 -2.242536 1.701197 -0.597230 4.344930 -1.691576 1.136603 -1.772549 2.278254 -9.255281 29.081713 -0.000829 -0.033313 0.812414 8.813475 7.804096 -9.695602 -4.513629 2.236780 -15.965789 -0.000191 0.000299 -0.000004 -0.802255 0.160590 -0.479885 -0.804182 0.123495 -0.482642 -1.603572 2.196813 -13.411692 6.282855 1.996540 8.976766 -0.059884 -0.456446 -11.241756 -7.517982 -3.298457 1.464851 -1.307930 -0.909979 -0.963164 -0.089130 13.329266 0.167465 0.036689 0.063835 2.451840 -0.000914 0.100618 2.451954 1.761343 0.074934 -0.146185 0.861728 0.119484 -0.163468 0.453907 0.063410 -0.155221 0.050761 -1.405045 -0.450549 2.622710 0.244998 -0.051691 0.459230 0.035546 0.029481 1.057678 0.086124 -0.045905 1.312397 1.566595 -3.009284 -0.000005 -0.000240 -21.499110 0.018711 -1.708444 -9.977181 -0.000094 -0.000101 -32.634654 -0.000028 -0.000038 -1.797738 -0.000008 -0.000041 -2.378453 -0.000153 -0.000137 -50.786384 -23.901253 -11.934583 -2.559538 34.949211 16.671940 -5.206542 -0.000085 -0.000110 -34.769850 0.000007 0.000016 -0.000000 0.486653 3.010666 -0.392407 0.354009 -0.059009 0.672213 0.000059 0.000012 0.000000 0.024225 -0.029998 11.786641 0.000055 -0.000035 -0.000007 0.023245 -0.032301 11.715939 -0.491942 -1.117299 8.444407 0.050281 0.015143 11.755996 0.782640 1.811571 9.547723 0.022818 0.006729 11.747262 -0.000008 0.000045 2.232156 -0.004497 -0.052631 11.750674 0.000056 -0.000026 11.750688 
0.000000 0.000000 0.000000 0.000008 0.000000 -0.000000 -0.000000 0.000000 -0.000000 -3.355076 -1.016002 -0.073536 -0.000265 -2.324386 -0.000013 1.458383 0.359511 28.957417 -0.998262 2.187823 23.103132 -0.902651 2.285143 19.918787 -0.255487 1.306324 9.526670 -0.002420 1.892610 -1.263472 -0.129101 3.107656 7.926065 5.409657 4.866674 -9.941519 -0.370093 -0.026374 1.879410 2.201505 -0.094295 -11.178790 -2.577423 2.389196 8.180086 -1.224265 0.699929 5.293427 -0.000027 -0.000009 -0.000006 6.381391 -10.948773 13.780632 -1.653407 0.030443 -8.383963 2.124044 0.320628 10.892336 -10.503240 6.877723 -56.022632 0.417219 0.034761 1.828782 -0.008476 -0.000102 -0.038630 0.186891 0.522422 -8.272319 3.370807 -0.311201 0.221599 0.033564 -0.187790 0.014664 0.984815 -0.060375 -9.910127 0.000078 -0.000112 -0.000055 -0.000056 -0.027840 0.027952 4.489325 5.050832 6.152151 2.291757 0.394915 -0.767810 6.518999 1.039308 -2.199299 1.695733 -0.638489 4.074376 -1.706306 1.276043 -0.836961 2.300031 -9.585563 28.258926 0.000190 0.005410 -0.132021 9.066029 8.105230 -8.651732 -4.585310 2.293470 -15.345458 -0.000200 0.000230 -0.000007 -0.802310 0.160590 -0.479889 -0.804182 0.123494 -0.482642 -1.606888 2.212334 -13.030339 6.430533 2.092276 9.416561 -0.057695 -0.446947 -11.004079 -7.595590 -2.923643 -1.277328 -2.281682 -0.605572 -10.068472 -0.088982 13.329275 0.167115 0.036743 0.063834 2.451855 -0.000914 0.100618 2.451955 1.621857 0.005780 -0.051000 0.758710 0.104139 -0.140375 0.505067 0.062285 -0.137238 0.024248 -1.382341 -0.341364 2.441240 0.228122 -0.047735 0.457460 0.031993 0.032911 1.031408 0.083429 -0.020318 1.541178 1.603748 -2.748121 -0.000004 -0.000240 -21.499101 0.015148 -1.721698 -10.303906 -0.000094 -0.000100 -32.509860 -0.000028 -0.000038 -1.797733 -0.000009 -0.000041 -2.378449 -0.000152 -0.000136 -50.594534 -23.901252 -11.934583 -2.559536 34.949211 16.671944 -5.206540 -0.000085 -0.000109 -34.647822 0.000023 0.000009 -0.000019 0.448975 2.836344 -0.491479 0.342794 -0.049177 0.628553 0.000060 0.000006 0.000005 0.024256 -0.029985 11.786683 0.000055 -0.000037 -0.000004 0.023275 -0.032288 11.715893 -0.528231 -1.221664 9.207717 0.050306 0.015190 11.756011 0.732567 1.665892 8.803934 0.022829 0.006754 11.747260 -0.000018 0.000021 2.394012 -0.004462 -0.052672 11.750673 0.000056 -0.000026 11.750688 
